<svg xmlns="http://www.w3.org/2000/svg" width="2208.9135156250004" height="200.0"><line x1="30.0" x2="2178.9135156250004" y1="25.0" y2="25.0" stroke="#1967d2" stroke-width="1" /><line x1="30.0" x2="2178.9135156250004" y1="75.0" y2="75.0" stroke="#1967d2" stroke-width="1" /><line x1="30.0" x2="2178.9135156250004" y1="125.0" y2="125.0" stroke="#1967d2" stroke-width="1" /><line x1="30.0" x2="2178.9135156250004" y1="175.0" y2="175.0" stroke="#1967d2" stroke-width="1" /><line x1="331.02466796875007" x2="331.02466796875007" y1="25.0" y2="75.0" stroke="black" stroke-width="3" /><line x1="505.4567578125001" x2="505.4567578125001" y1="25.0" y2="75.0" stroke="black" stroke-width="3" /><line x1="803.26384765625" x2="803.26384765625" y1="25.0" y2="75.0" stroke="black" stroke-width="3" /><line x1="977.6959375000001" x2="977.6959375000001" y1="25.0" y2="75.0" stroke="black" stroke-width="3" /><line x1="1521.3528320312503" x2="1521.3528320312503" y1="75.0" y2="125.0" stroke="black" stroke-width="3" /><line x1="1700.0154101562503" x2="1700.0154101562503" y1="75.0" y2="125.0" stroke="black" stroke-width="3" /><line x1="1878.6779882812502" x2="1878.6779882812502" y1="125.0" y2="175.0" stroke="black" stroke-width="3" /><line x1="2057.34056640625" x2="2057.34056640625" y1="125.0" y2="175.0" stroke="black" stroke-width="3" /><line x1="2138.9135156250004" x2="2138.9135156250004" y1="75.0" y2="125.0" stroke="black" stroke-width="3" /><rect x="10.0" y="5.0" width="40" height="40" stroke="black" fill="white" stroke-width="0" /><text x="30.0" y="25.0" dominant-baseline="middle" text-anchor="middle" font-size="14px" font-family="Arial">0: </text><rect x="10.0" y="55.0" width="40" height="40" stroke="black" fill="white" stroke-width="0" /><text x="30.0" y="75.0" dominant-baseline="middle" text-anchor="middle" font-size="14px" font-family="Arial">1: </text><rect x="10.0" y="105.0" width="40" height="40" stroke="black" fill="white" stroke-width="0" /><text x="30.0" y="125.0" dominant-baseline="middle" text-anchor="middle" font-size="14px" font-family="Arial">2: </text><rect x="10.0" y="155.0" width="40" height="40" stroke="black" fill="white" stroke-width="0" /><text x="30.0" y="175.0" dominant-baseline="middle" text-anchor="middle" font-size="14px" font-family="Arial">3: </text><rect x="70.00000000000001" y="5.0" width="199.45171875000003" height="40" stroke="black" fill="white" stroke-width="1" /><text x="169.72585937500003" y="25.0" dominant-baseline="middle" text-anchor="middle" font-size="14px" font-family="Arial">PhXZ(a=0.75,x=0,z=-0.25)</text><rect x="70.00000000000001" y="55.0" width="199.45171875000003" height="40" stroke="black" fill="white" stroke-width="1" /><text x="169.72585937500003" y="75.0" dominant-baseline="middle" text-anchor="middle" font-size="14px" font-family="Arial">PhXZ(a=0.25,x=0,z=0.25)</text><rect x="70.00000000000001" y="105.0" width="199.45171875000003" height="40" stroke="black" fill="white" stroke-width="1" /><text x="169.72585937500003" y="125.0" dominant-baseline="middle" text-anchor="middle" font-size="14px" font-family="Arial">Ry(Θ2)</text><rect x="70.00000000000001" y="155.0" width="199.45171875000003" height="40" stroke="black" fill="white" stroke-width="1" /><text x="169.72585937500003" y="175.0" dominant-baseline="middle" text-anchor="middle" font-size="14px" font-family="Arial">Ry(Θ2)</text><rect x="289.45171875000005" y="5.0" width="83.14589843750001" height="40" stroke="black" fill="white" stroke-width="1" /><text x="331.02466796875007" y="25.0" dominant-baseline="middle" text-anchor="middle" font-size="14px" font-family="Arial">iSwap</text><rect x="289.45171875000005" y="55.0" width="83.14589843750001" height="40" stroke="black" fill="white" stroke-width="1" /><text x="331.02466796875007" y="75.0" dominant-baseline="middle" text-anchor="middle" font-size="14px" font-family="Arial">iSwap^0.5</text><rect x="392.5976171875001" y="5.0" width="48.7603125" height="40" stroke="black" fill="white" stroke-width="1" /><text x="416.9777734375001" y="25.0" dominant-baseline="middle" text-anchor="middle" font-size="14px" font-family="Arial">Rz(γ)</text><rect x="392.5976171875001" y="55.0" width="48.7603125" height="40" stroke="black" fill="white" stroke-width="1" /><text x="416.9777734375001" y="75.0" dominant-baseline="middle" text-anchor="middle" font-size="14px" font-family="Arial">Rz(-γ)</text><rect x="461.3579296875001" y="5.0" width="88.19765625000001" height="40" stroke="black" fill="white" stroke-width="1" /><text x="505.4567578125001" y="25.0" dominant-baseline="middle" text-anchor="middle" font-size="14px" font-family="Arial">iSwap</text><rect x="461.3579296875001" y="55.0" width="88.19765625000001" height="40" stroke="black" fill="white" stroke-width="1" /><text x="505.4567578125001" y="75.0" dominant-baseline="middle" text-anchor="middle" font-size="14px" font-family="Arial">iSwap^-0.5</text><rect x="569.5555859375" y="55.0" width="172.13531250000003" height="40" stroke="black" fill="white" stroke-width="1" /><text x="655.6232421875001" y="75.0" dominant-baseline="middle" text-anchor="middle" font-size="14px" font-family="Arial">PhXZ(a=0.25,x=1,z=0)</text><rect x="761.6908984375001" y="5.0" width="83.14589843750001" height="40" stroke="black" fill="white" stroke-width="1" /><text x="803.26384765625" y="25.0" dominant-baseline="middle" text-anchor="middle" font-size="14px" font-family="Arial">iSwap</text><rect x="761.6908984375001" y="55.0" width="83.14589843750001" height="40" stroke="black" fill="white" stroke-width="1" /><text x="803.26384765625" y="75.0" dominant-baseline="middle" text-anchor="middle" font-size="14px" font-family="Arial">iSwap^0.5</text><rect x="864.8367968750001" y="5.0" width="48.7603125" height="40" stroke="black" fill="white" stroke-width="1" /><text x="889.2169531250001" y="25.0" dominant-baseline="middle" text-anchor="middle" font-size="14px" font-family="Arial">Rz(-γ)</text><rect x="864.8367968750001" y="55.0" width="48.7603125" height="40" stroke="black" fill="white" stroke-width="1" /><text x="889.2169531250001" y="75.0" dominant-baseline="middle" text-anchor="middle" font-size="14px" font-family="Arial">Rz(γ)</text><rect x="933.5971093750002" y="5.0" width="88.19765625000001" height="40" stroke="black" fill="white" stroke-width="1" /><text x="977.6959375000001" y="25.0" dominant-baseline="middle" text-anchor="middle" font-size="14px" font-family="Arial">iSwap</text><rect x="933.5971093750002" y="55.0" width="88.19765625000001" height="40" stroke="black" fill="white" stroke-width="1" /><text x="977.6959375000001" y="75.0" dominant-baseline="middle" text-anchor="middle" font-size="14px" font-family="Arial">iSwap^-0.5</text><rect x="1041.794765625" y="5.0" width="194.39996093750003" height="40" stroke="black" fill="white" stroke-width="1" /><text x="1138.99474609375" y="25.0" dominant-baseline="middle" text-anchor="middle" font-size="14px" font-family="Arial">PhXZ(a=0.25,x=0,z=0.25)</text><rect x="1041.794765625" y="55.0" width="194.39996093750003" height="40" stroke="black" fill="white" stroke-width="1" /><text x="1138.99474609375" y="75.0" dominant-baseline="middle" text-anchor="middle" font-size="14px" font-family="Arial">PhXZ(a=0.125,x=1,z=0)</text><rect x="1256.1947265625001" y="55.0" width="54.5025" height="40" stroke="black" fill="white" stroke-width="1" /><text x="1283.4459765625002" y="75.0" dominant-baseline="middle" text-anchor="middle" font-size="14px" font-family="Arial">Rx(ϕ1)</text><rect x="1330.6972265625002" y="55.0" width="53.5659765625" height="40" stroke="black" fill="white" stroke-width="1" /><text x="1357.4802148437502" y="75.0" dominant-baseline="middle" text-anchor="middle" font-size="14px" font-family="Arial">Rz(ϕ2)</text><rect x="1404.2632031250002" y="55.0" width="55.5166796875" height="40" stroke="black" fill="white" stroke-width="1" /><text x="1432.0215429687503" y="75.0" dominant-baseline="middle" text-anchor="middle" font-size="14px" font-family="Arial">Ry(Θ1)</text><rect x="1479.7798828125003" y="55.0" width="83.14589843750001" height="40" stroke="black" fill="white" stroke-width="1" /><text x="1521.3528320312503" y="75.0" dominant-baseline="middle" text-anchor="middle" font-size="14px" font-family="Arial">iSwap</text><rect x="1479.7798828125003" y="105.0" width="83.14589843750001" height="40" stroke="black" fill="white" stroke-width="1" /><text x="1521.3528320312503" y="125.0" dominant-baseline="middle" text-anchor="middle" font-size="14px" font-family="Arial">iSwap^0.5</text><rect x="1582.9257812500002" y="55.0" width="55.5166796875" height="40" stroke="black" fill="white" stroke-width="1" /><text x="1610.6841210937503" y="75.0" dominant-baseline="middle" text-anchor="middle" font-size="14px" font-family="Arial">Ry(Θ3)</text><rect x="1582.9257812500002" y="105.0" width="55.5166796875" height="40" stroke="black" fill="white" stroke-width="1" /><text x="1610.6841210937503" y="125.0" dominant-baseline="middle" text-anchor="middle" font-size="14px" font-family="Arial">Ry(Θ4)</text><rect x="1658.4424609375003" y="55.0" width="83.14589843750001" height="40" stroke="black" fill="white" stroke-width="1" /><text x="1700.0154101562503" y="75.0" dominant-baseline="middle" text-anchor="middle" font-size="14px" font-family="Arial">iSwap</text><rect x="1658.4424609375003" y="105.0" width="83.14589843750001" height="40" stroke="black" fill="white" stroke-width="1" /><text x="1700.0154101562503" y="125.0" dominant-baseline="middle" text-anchor="middle" font-size="14px" font-family="Arial">iSwap^0.5</text><rect x="1761.5883593750002" y="105.0" width="55.5166796875" height="40" stroke="black" fill="white" stroke-width="1" /><text x="1789.3466992187502" y="125.0" dominant-baseline="middle" text-anchor="middle" font-size="14px" font-family="Arial">Ry(Θ1)</text><rect x="1837.1050390625003" y="105.0" width="83.14589843750001" height="40" stroke="black" fill="white" stroke-width="1" /><text x="1878.6779882812502" y="125.0" dominant-baseline="middle" text-anchor="middle" font-size="14px" font-family="Arial">iSwap</text><rect x="1837.1050390625003" y="155.0" width="83.14589843750001" height="40" stroke="black" fill="white" stroke-width="1" /><text x="1878.6779882812502" y="175.0" dominant-baseline="middle" text-anchor="middle" font-size="14px" font-family="Arial">iSwap^0.5</text><rect x="1940.2509375000002" y="105.0" width="55.5166796875" height="40" stroke="black" fill="white" stroke-width="1" /><text x="1968.0092773437502" y="125.0" dominant-baseline="middle" text-anchor="middle" font-size="14px" font-family="Arial">Ry(Θ3)</text><rect x="1940.2509375000002" y="155.0" width="55.5166796875" height="40" stroke="black" fill="white" stroke-width="1" /><text x="1968.0092773437502" y="175.0" dominant-baseline="middle" text-anchor="middle" font-size="14px" font-family="Arial">Ry(Θ4)</text><rect x="2015.7676171875003" y="105.0" width="83.14589843750001" height="40" stroke="black" fill="white" stroke-width="1" /><text x="2057.34056640625" y="125.0" dominant-baseline="middle" text-anchor="middle" font-size="14px" font-family="Arial">iSwap</text><rect x="2015.7676171875003" y="155.0" width="83.14589843750001" height="40" stroke="black" fill="white" stroke-width="1" /><text x="2057.34056640625" y="175.0" dominant-baseline="middle" text-anchor="middle" font-size="14px" font-family="Arial">iSwap^0.5</text><rect x="2118.9135156250004" y="55.0" width="40" height="40" stroke="black" fill="white" stroke-width="1" /><text x="2138.9135156250004" y="75.0" dominant-baseline="middle" text-anchor="middle" font-size="18px" font-family="Arial">M</text><rect x="2118.9135156250004" y="105.0" width="40" height="40" stroke="black" fill="white" stroke-width="1" /><text x="2138.9135156250004" y="125.0" dominant-baseline="middle" text-anchor="middle" font-size="18px" font-family="Arial">M</text></svg>
